<svg width="28" height="19" viewBox="0 0 28 19" fill="none" xmlns="http://www.w3.org/2000/svg">
<path d="M13.5 0C6.0444 0 0 4.02922 0 9C0 13.9708 6.0444 18 13.5 18C20.9556 18 27 13.9708 27 9C27 4.02922 20.9556 0 13.5 0ZM6.3468 9C5.3964 7.28187 4.84212 5.713 4.69446 4.51372C5.99523 5.86246 7.10736 7.36969 8.00256 9C8.95296 10.7181 9.50724 12.287 9.6549 13.4863C8.3553 12.1375 7.24317 10.6303 6.3468 9ZM12.5133 9C11.3813 6.95238 10.7203 5.08373 10.5445 3.65534H10.5457C12.0938 5.26174 13.4192 7.0585 14.4868 9C15.6188 11.0476 16.2798 12.9163 16.4556 14.3447H16.4544C14.9063 12.7383 13.581 10.9415 12.5133 9ZM18.996 9C18.0456 7.28187 17.4913 5.713 17.3437 4.51372H17.3448C18.6444 5.86246 19.7566 7.36969 20.6529 9C21.6033 10.7181 22.1576 12.287 22.3053 13.4863C21.0045 12.1375 19.8924 10.6303 18.9972 9H18.996Z" fill="currentColor"/>
</svg>
